<svg xmlns="http://www.w3.org/2000/svg" xmlns:xlink="http://www.w3.org/1999/xlink" viewBox="0 0 198.69 198.73"><defs><style>.cls-1{fill:url(#未命名的渐变_63);}.cls-2{fill:url(#未命名的渐变_14);}.cls-3{fill:url(#未命名的渐变_14-2);}.cls-4{fill:url(#未命名的渐变_14-3);}.cls-5{fill:url(#未命名的渐变_14-4);}.cls-6{fill:url(#未命名的渐变_14-5);}.cls-7{fill:url(#未命名的渐变_14-6);}</style><radialGradient id="未命名的渐变_63" cx="99.35" cy="99.36" r="99.35" gradientUnits="userSpaceOnUse"><stop offset="0" stop-color="#ebb162"/><stop offset="1" stop-color="#d7801e"/></radialGradient><linearGradient id="未命名的渐变_14" x1="368.34" y1="117.59" x2="429.16" y2="117.59" gradientTransform="matrix(-0.49, 0, 0, -1, 279.1, 234.82)" gradientUnits="userSpaceOnUse"><stop offset="0" stop-color="#e28e22"/><stop offset="1" stop-color="#e9a54c"/></linearGradient><linearGradient id="未命名的渐变_14-2" x1="368.34" y1="99.54" x2="429.17" y2="99.54" gradientTransform="matrix(-0.49, 0, 0, -1, 279.11, 198.71)" xlink:href="#未命名的渐变_14"/><linearGradient id="未命名的渐变_14-3" x1="368.35" y1="81.56" x2="429.17" y2="81.56" gradientTransform="matrix(-0.49, 0, 0, -1, 279.11, 162.76)" xlink:href="#未命名的渐变_14"/><linearGradient id="未命名的渐变_14-4" x1="438.58" y1="117.6" x2="499.41" y2="117.6" gradientTransform="matrix(-0.49, 0, 0, -1, 348.54, 234.8)" xlink:href="#未命名的渐变_14"/><linearGradient id="未命名的渐变_14-5" x1="438.59" y1="99.55" x2="499.41" y2="99.55" gradientTransform="matrix(-0.49, 0, 0, -1, 348.55, 198.69)" xlink:href="#未命名的渐变_14"/><linearGradient id="未命名的渐变_14-6" x1="438.6" y1="81.58" x2="499.42" y2="81.58" gradientTransform="matrix(-0.49, 0, 0, -1, 348.56, 162.74)" xlink:href="#未命名的渐变_14"/></defs><title>KUN </title><g id="图层_2" data-name="图层 2"><g id="图层_1-2" data-name="图层 1"><path class="cls-1" d="M84.16.74C-43.84,25.05-19.56,211.93,114.53,198,242.53,173.68,218.25-13.2,84.16.74ZM159,106.53c-44,47.27-57.4,62.65-70.28,49.75C22,86.65,21.11,112.4,86.14,45c1.79-2,7-8.21,16.43-6.67,11.54,3.71,17.6,16,38.76,35.3C154.7,87.83,164.82,92.16,159,106.53Z"/><rect class="cls-2" x="66.95" y="112.89" width="30.06" height="8.99" rx="2.43" transform="translate(163.91 234.79) rotate(-179.98)"/><rect class="cls-3" x="66.95" y="94.83" width="30.06" height="8.99" rx="2.43" transform="translate(163.93 198.68) rotate(-179.98)"/><rect class="cls-4" x="66.96" y="76.86" width="30.06" height="8.99" rx="2.43" transform="translate(163.95 162.73) rotate(-179.98)"/><rect class="cls-5" x="101.67" y="112.88" width="30.06" height="8.99" rx="2.43" transform="translate(233.35 234.8) rotate(-179.98)"/><rect class="cls-6" x="101.67" y="94.83" width="30.06" height="8.99" rx="2.43" transform="translate(233.38 198.69) rotate(-179.98)"/><rect class="cls-7" x="101.68" y="76.86" width="30.06" height="8.99" rx="2.43" transform="translate(233.4 162.74) rotate(-179.98)"/></g></g></svg>