<svg xmlns="http://www.w3.org/2000/svg" xmlns:xlink="http://www.w3.org/1999/xlink" viewBox="0 0 202.02 202.05"><defs><style>.cls-1{fill:#fff;}.cls-2{fill:url(#未命名的渐变_36);}.cls-3{fill:#7a51dc;}</style><radialGradient id="未命名的渐变_36" cx="101.01" cy="101.03" r="101.02" gradientUnits="userSpaceOnUse"><stop offset="0" stop-color="#bbb9fc"/><stop offset="1" stop-color="#7a51dc"/></radialGradient></defs><title>QSD </title><g id="图层_2" data-name="图层 2"><g id="图层_1-2" data-name="图层 1"><circle class="cls-1" cx="101.02" cy="96.43" r="89.06" transform="translate(-38.6 99.68) rotate(-45)"/><path class="cls-2" d="M85.57.75C-44.57,25.47-19.89,215.47,116.45,201.3,246.58,176.58,221.9-13.42,85.57.75Zm76.07,107.57c-44.71,48.06-58.36,63.69-71.45,50.57-67.8-70.79-68.73-44.61-2.6-113.13,1.81-2,7.15-8.34,16.7-6.78C116,42.76,122.18,55.21,143.7,74.87,157.29,89.3,167.58,93.71,161.64,108.32Z"/><path class="cls-3" d="M74.66,114.78l52.7,0a4.56,4.56,0,0,1,4.57,4.57h0a4.57,4.57,0,0,1-4.57,4.56l-52.71,0a4.55,4.55,0,0,1-4.56-4.57h0A4.55,4.55,0,0,1,74.66,114.78Z"/><path class="cls-3" d="M74.66,96.42l52.71,0a4.58,4.58,0,0,1,4.57,4.57h0a4.58,4.58,0,0,1-4.57,4.57l-52.71,0A4.58,4.58,0,0,1,70.09,101h0A4.57,4.57,0,0,1,74.66,96.42Z"/><path class="cls-3" d="M74.67,78.14l52.71,0a4.57,4.57,0,0,1,4.56,4.57h0a4.56,4.56,0,0,1-4.57,4.57l-52.7,0a4.57,4.57,0,0,1-4.57-4.57h0A4.58,4.58,0,0,1,74.67,78.14Z"/></g></g></svg>